<svg width="289" height="34" viewBox="0 0 289 34" fill="none" xmlns="http://www.w3.org/2000/svg">
<path d="M0.417081 2.304H14.5651C15.8611 2.304 17.0371 2.568 18.0931 3.096C19.1491 3.6 19.9771 4.32 20.5771 5.256C21.1771 6.168 21.4771 7.224 21.4771 8.424C21.4771 9.792 21.0931 10.98 20.3251 11.988C19.5811 12.972 18.6211 13.656 17.4451 14.04V14.184C18.8371 14.448 19.9651 15.132 20.8291 16.236C21.7171 17.316 22.1611 18.6 22.1611 20.088C22.1611 22.32 21.4411 24.036 20.0011 25.236C18.5851 26.412 16.7731 27 14.5651 27H0.417081V2.304ZM13.0891 12.168C14.0491 12.168 14.7931 11.928 15.3211 11.448C15.8491 10.944 16.1131 10.308 16.1131 9.54C16.1131 8.628 15.8611 7.932 15.3571 7.452C14.8771 6.972 14.2051 6.732 13.3411 6.732H5.67308V12.168H13.0891ZM13.7011 22.572C14.6131 22.572 15.3571 22.308 15.9331 21.78C16.5091 21.252 16.7971 20.496 16.7971 19.512C16.7971 18.624 16.5091 17.904 15.9331 17.352C15.3571 16.8 14.5171 16.524 13.4131 16.524H5.67308V22.572H13.7011ZM25.9656 0.971998H30.8976V5.652H25.9656V0.971998ZM25.9656 8.064H30.8976V27H25.9656V8.064ZM38.5051 33.552C37.1851 33.552 36.0691 33.144 35.1571 32.328C34.2451 31.512 33.7891 30.468 33.7891 29.196C33.7891 27.516 34.7611 26.232 36.7051 25.344C35.4811 24.72 34.8691 23.772 34.8691 22.5C34.8691 21.708 35.1811 21.024 35.8051 20.448C36.4291 19.848 37.2331 19.428 38.2171 19.188C36.3691 18.06 35.4451 16.356 35.4451 14.076C35.4451 12.084 36.1651 10.512 37.6051 9.36C39.0691 8.208 41.1451 7.632 43.8331 7.632C45.2971 7.632 46.5691 7.812 47.6491 8.172C48.3691 7.716 48.8851 7.176 49.1971 6.552C49.5331 5.904 49.7011 5.352 49.7011 4.896H54.5251C54.5251 6.216 54.1651 7.284 53.4451 8.1C52.7491 8.892 51.7531 9.432 50.4571 9.72C51.6571 10.848 52.2571 12.3 52.2571 14.076C52.2571 16.068 51.5491 17.64 50.1331 18.792C48.7411 19.944 46.7371 20.52 44.1211 20.52H41.2411C40.8091 20.52 40.4611 20.616 40.1971 20.808C39.9571 21 39.8371 21.264 39.8371 21.6C39.8371 21.888 39.9451 22.14 40.1611 22.356C40.3771 22.548 40.6651 22.644 41.0251 22.644H49.6291C51.0211 22.644 52.1851 23.112 53.1211 24.048C54.0571 24.984 54.5251 26.208 54.5251 27.72C54.5251 28.872 54.2131 29.892 53.5891 30.78C52.9651 31.668 52.1131 32.352 51.0331 32.832C49.9531 33.312 48.7651 33.552 47.4691 33.552H38.5051ZM43.8331 17.172C44.9851 17.172 45.8611 16.908 46.4611 16.38C47.0611 15.828 47.3611 15.06 47.3611 14.076C47.3611 13.092 47.0611 12.336 46.4611 11.808C45.8611 11.256 44.9851 10.98 43.8331 10.98C42.6811 10.98 41.8051 11.256 41.2051 11.808C40.6291 12.336 40.3411 13.092 40.3411 14.076C40.3411 15.06 40.6291 15.828 41.2051 16.38C41.8051 16.908 42.6811 17.172 43.8331 17.172ZM47.3971 30.132C48.0211 30.132 48.5371 29.976 48.9451 29.664C49.3531 29.352 49.5571 28.944 49.5571 28.44C49.5571 27.912 49.3651 27.504 48.9811 27.216C48.6211 26.928 48.1651 26.784 47.6131 26.784H40.6651C40.1371 26.784 39.6811 26.94 39.2971 27.252C38.9371 27.564 38.7571 27.96 38.7571 28.44C38.7571 28.944 38.9371 29.352 39.2971 29.664C39.6571 29.976 40.1131 30.132 40.6651 30.132H47.3971ZM77.3364 27.432C73.5204 27.432 70.5684 26.388 68.4804 24.3C66.4164 22.212 65.3844 18.996 65.3844 14.652C65.3844 10.404 66.4884 7.212 68.6964 5.076C70.9044 2.94 74.0244 1.872 78.0564 1.872C80.1924 1.872 82.1364 2.208 83.8884 2.88C85.6644 3.528 87.0684 4.524 88.1004 5.868C89.1564 7.188 89.6844 8.808 89.6844 10.728H84.2844C84.2844 9.384 83.6844 8.316 82.4844 7.524C81.3084 6.708 79.8924 6.3 78.2364 6.3C75.7164 6.3 73.8324 6.972 72.5844 8.316C71.3604 9.66 70.7484 11.592 70.7484 14.112V15.192C70.7484 17.832 71.3124 19.8 72.4404 21.096C73.5924 22.368 75.3444 23.004 77.6964 23.004C79.6404 23.004 81.2484 22.548 82.5204 21.636C83.7924 20.7 84.4404 19.44 84.4644 17.856H76.9764V13.572H89.6844V27H86.0844L85.6164 24.264C84.4644 25.368 83.2524 26.172 81.9804 26.676C80.7084 27.18 79.1604 27.432 77.3364 27.432ZM98.264 27.432C96.8 27.432 95.456 27.048 94.232 26.28C93.008 25.512 92.396 24.12 92.396 22.104C92.396 19.68 93.392 17.964 95.384 16.956C97.376 15.924 100.196 15.408 103.844 15.408V14.076C103.844 13.236 103.652 12.588 103.268 12.132C102.908 11.676 102.212 11.448 101.18 11.448C100.076 11.448 99.284 11.616 98.804 11.952C98.348 12.288 98.12 12.684 98.12 13.14V13.68H93.368C93.344 13.536 93.332 13.272 93.332 12.888C93.332 11.304 94.028 10.032 95.42 9.072C96.836 8.112 98.708 7.632 101.036 7.632C103.628 7.632 105.56 8.16 106.832 9.216C108.128 10.272 108.776 11.796 108.776 13.788V22.14C108.776 22.572 108.896 22.896 109.136 23.112C109.376 23.304 109.676 23.4 110.036 23.4H111.044V26.856C110.276 27.24 109.328 27.432 108.2 27.432C107.216 27.432 106.388 27.216 105.716 26.784C105.068 26.352 104.624 25.74 104.384 24.948H104.168C103.472 25.764 102.668 26.388 101.756 26.82C100.868 27.228 99.704 27.432 98.264 27.432ZM99.812 23.544C101.204 23.544 102.224 23.16 102.872 22.392C103.52 21.6 103.844 20.556 103.844 19.26V18.684C99.548 18.684 97.4 19.644 97.4 21.564C97.4 22.164 97.592 22.644 97.976 23.004C98.384 23.364 98.996 23.544 99.812 23.544ZM113.372 8.064H117.584L117.944 10.548H118.196C119.588 8.604 121.388 7.632 123.596 7.632C125.996 7.632 127.652 8.604 128.564 10.548H128.852C130.292 8.604 132.164 7.632 134.468 7.632C136.268 7.632 137.696 8.16 138.752 9.216C139.832 10.272 140.372 11.964 140.372 14.292V27H135.44V15.336C135.44 13.104 134.516 11.988 132.668 11.988C131.708 11.988 130.916 12.384 130.292 13.176C129.668 13.944 129.356 14.904 129.356 16.056V27H124.424V15.336C124.424 13.104 123.5 11.988 121.652 11.988C120.692 11.988 119.888 12.384 119.24 13.176C118.616 13.944 118.304 14.904 118.304 16.056V27H113.372V8.064ZM152.636 27.432C149.588 27.432 147.308 26.628 145.796 25.02C144.308 23.412 143.564 20.916 143.564 17.532C143.564 14.148 144.308 11.652 145.796 10.044C147.308 8.436 149.588 7.632 152.636 7.632C155.444 7.632 157.544 8.448 158.936 10.08C160.328 11.688 161.024 14.172 161.024 17.532V18.684H148.568C148.616 20.364 148.952 21.612 149.576 22.428C150.2 23.22 151.244 23.616 152.708 23.616C153.74 23.616 154.568 23.328 155.192 22.752C155.84 22.176 156.164 21.36 156.164 20.304H161.024C161.024 22.68 160.256 24.468 158.72 25.668C157.184 26.844 155.156 27.432 152.636 27.432ZM155.912 15.408C155.912 12.792 154.82 11.484 152.636 11.484C151.388 11.484 150.44 11.808 149.792 12.456C149.168 13.104 148.784 14.088 148.64 15.408H155.912ZM183.091 27.432C181.195 27.432 179.455 27.144 177.871 26.568C176.311 25.968 175.063 25.092 174.127 23.94C173.191 22.788 172.723 21.396 172.723 19.764L172.759 18.972H178.051L178.015 19.548C178.015 20.604 178.483 21.444 179.419 22.068C180.355 22.692 181.663 23.004 183.343 23.004C185.119 23.004 186.403 22.776 187.195 22.32C187.987 21.84 188.383 21.204 188.383 20.412C188.383 19.716 188.119 19.14 187.591 18.684C187.087 18.204 186.439 17.832 185.647 17.568C184.879 17.28 183.811 16.944 182.443 16.56C180.499 16.008 178.927 15.48 177.727 14.976C176.527 14.472 175.495 13.728 174.631 12.744C173.767 11.736 173.335 10.416 173.335 8.784C173.335 6.528 174.247 4.812 176.071 3.636C177.895 2.46 180.319 1.872 183.343 1.872C186.199 1.872 188.527 2.484 190.327 3.708C192.151 4.908 193.063 6.72 193.063 9.144V9.576H187.879V9.252C187.879 8.34 187.459 7.62 186.619 7.092C185.803 6.564 184.687 6.3 183.271 6.3C181.759 6.3 180.595 6.504 179.779 6.912C178.987 7.32 178.591 7.884 178.591 8.604C178.591 9.156 178.831 9.636 179.311 10.044C179.791 10.428 180.391 10.752 181.111 11.016C181.831 11.256 182.851 11.556 184.171 11.916C186.139 12.444 187.747 12.972 188.995 13.5C190.267 14.004 191.359 14.76 192.271 15.768C193.183 16.776 193.639 18.096 193.639 19.728C193.639 22.368 192.691 24.312 190.795 25.56C188.923 26.808 186.355 27.432 183.091 27.432ZM203.395 27.432C201.451 27.432 199.915 26.904 198.787 25.848C197.683 24.792 197.131 23.1 197.131 20.772V8.064H202.063V19.728C202.063 20.904 202.339 21.756 202.891 22.284C203.443 22.812 204.259 23.076 205.339 23.076C206.443 23.076 207.355 22.692 208.075 21.924C208.819 21.132 209.191 20.16 209.191 19.008V8.064H214.123V27H209.911L209.551 24.516H209.299C207.763 26.46 205.795 27.432 203.395 27.432ZM218.707 8.064H222.919L223.315 11.124H223.567C223.975 10.044 224.503 9.192 225.151 8.568C225.799 7.944 226.651 7.632 227.707 7.632C228.403 7.632 229.027 7.74 229.579 7.956V12.564H228.211C226.603 12.564 225.439 13.008 224.719 13.896C223.999 14.76 223.639 16.08 223.639 17.856V27H218.707V8.064ZM229.927 8.064H235.075L238.027 16.2C238.363 17.112 238.891 19.008 239.611 21.888H239.791C240.463 19.176 240.991 17.28 241.375 16.2L244.291 8.064H249.295L242.203 27H236.983L229.927 8.064ZM259.435 27.432C256.387 27.432 254.107 26.628 252.595 25.02C251.107 23.412 250.363 20.916 250.363 17.532C250.363 14.148 251.107 11.652 252.595 10.044C254.107 8.436 256.387 7.632 259.435 7.632C262.243 7.632 264.343 8.448 265.735 10.08C267.127 11.688 267.823 14.172 267.823 17.532V18.684H255.367C255.415 20.364 255.751 21.612 256.375 22.428C256.999 23.22 258.043 23.616 259.507 23.616C260.539 23.616 261.367 23.328 261.991 22.752C262.639 22.176 262.963 21.36 262.963 20.304H267.823C267.823 22.68 267.055 24.468 265.519 25.668C263.983 26.844 261.955 27.432 259.435 27.432ZM262.711 15.408C262.711 12.792 261.619 11.484 259.435 11.484C258.187 11.484 257.239 11.808 256.591 12.456C255.967 13.104 255.583 14.088 255.439 15.408H262.711ZM273.967 33.552C272.647 33.552 271.519 33.396 270.583 33.084V29.628H272.923C273.763 29.628 274.447 29.424 274.975 29.016C275.503 28.608 275.935 27.936 276.271 27L268.855 8.064H274.003L277.567 16.956C277.927 17.892 278.371 19.536 278.899 21.888H279.079C279.655 19.68 280.099 18.048 280.411 16.992L283.219 8.064H288.223L281.851 26.028C281.275 27.612 280.675 28.932 280.051 29.988C279.427 31.068 278.611 31.932 277.603 32.58C276.619 33.228 275.407 33.552 273.967 33.552Z" fill="black"/>
</svg>
